:SAMPLES-PER-SECOND 24
:FULLY-SPECIFIED
:DEGREES
251
root  -1.78399 38.6336 47.6701 -61.5989 47.5515 -65.1788
RightUpLeg  -56.3047 -30.0971 -0.987653
RightLeg  104.614 -0.578727 3.06737
RightFoot  5.85846 -2.11983 14.2146
RightToes  -2.08645e-008 3.77894e-005 6.81332e-007
Spine  21.9736 3.12074 -1.55705
Spine1  8.79692 -0.510446 14.3766
HEad  -39.4614 -31.667 22.7571
LeftShoulder1  7.09477 -13.1222 -36.6125
LeftArm  -1.38287 -4.06316 -23.1889
LeftForeArm  46.3048 -71.9953 -30.503
LeftHand  -0.764571 -2.92958 10.8978
RightShoulder  4.04393 6.74868 33.5569
RightArm  -19.0497 -6.37626 15.8089
RightForeArm  24.589 9.49697 7.5472
RightHand  -0.625122 8.4596 -5.63271
LeftUpLeg  -16.8403 -3.72424 26.1829
LeftLeg  41.9215 3.76564 4.01299
LeftFoot  -14.0428 0.353104 11.3299
LeftToes  1.24767e-006 1.47042e-008 1.32732e-009
252
root  -1.3196 38.5647 47.4707 -56.6068 50.7279 -60.0325
RightUpLeg  -52.0878 -29.0801 0.318401
RightLeg  106.555 -1.25782 4.80869
RightFoot  6.3486 -2.7207 17.6394
RightToes  -2.08645e-008 3.77894e-005 6.81332e-007
Spine  18.5261 2.92346 -4.61018
Spine1  9.76695 -1.26371 13.7837
HEad  -40.1899 -31.1791 22.4226
LeftShoulder1  7.13923 -13.1868 -36.7108
LeftArm  -1.35111 2.38212 -22.2667
LeftForeArm  53.6107 -74.8671 -37.5793
LeftHand  -0.757248 -2.15367 11.8418
RightShoulder  3.90244 6.54587 32.9476
RightArm  -8.42133 -8.42394 15.8835
RightForeArm  11.2407 23.2411 4.42942
RightHand  -0.58619 7.09562 -5.79172
LeftUpLeg  -16.0386 -2.38735 20.507
LeftLeg  40.8498 4.39618 4.45508
LeftFoot  -14.1403 0.370153 11.6193
LeftToes  1.24767e-006 1.47042e-008 1.32732e-009
253
root  -0.6614 39.0408 46.9443 -48.3241 51.6267 -51.8354
RightUpLeg  -47.7229 -26.1683 0.455746
RightLeg  103.022 -0.601203 3.49966
RightFoot  7.01194 -2.88797 18.0498
RightToes  -2.08645e-008 3.77894e-005 6.81332e-007
Spine  14.9327 2.12669 -5.47593
Spine1  9.46057 -1.67906 12.2077
HEad  -38.6524 -29.4024 20.8562
LeftShoulder1  7.06382 -13.117 -36.4444
LeftArm  0.0646009 11.7801 -21.7614
LeftForeArm  68.8274 -78.3026 -52.7991
LeftHand  -0.646777 -1.91857 10.4593
RightShoulder  3.85999 6.4977 32.7104
RightArm  -9.61027 -10.4002 16.1918
RightForeArm  19.3485 37.2798 7.36163
RightHand  -0.585287 7.51112 -5.61653
LeftUpLeg  -12.4745 -1.44711 15.0699
LeftLeg  34.3959 6.09357 4.78051
LeftFoot  -11.8054 0.111333 11.6384
LeftToes  1.24767e-006 1.47042e-008 1.32732e-009
254
root  0.0976963 40.0944 46.0771 -38.38 50.159 -42.5645
RightUpLeg  -44.2885 -22.2301 0.132828
RightLeg  93.7418 0.346483 -0.541892
RightFoot  6.86285 -2.28672 14.4919
RightToes  -2.08645e-008 3.77894e-005 6.81332e-007
Spine  11.9332 0.989127 -2.79144
Spine1  7.62159 -1.32086 8.43205
HEad  -35.4328 -26.9298 18.0347
LeftShoulder1  6.95945 -12.9785 -36.1762
LeftArm  2.4374 21.2837 -21.8335
LeftForeArm  89.8383 -80.2705 -73.5215
LeftHand  -0.551895 -2.30787 8.53538
RightShoulder  3.84219 6.50985 32.4852
RightArm  -6.29688 -11.0424 18.5749
RightForeArm  27.3462 47.8965 10.3835
RightHand  -0.654327 7.58703 -6.20892
LeftUpLeg  -8.53165 0.38837 10.1348
LeftLeg  24.5194 9.18342 4.87263
LeftFoot  -3.79099 -0.881244 13.0286
LeftToes  1.24767e-006 1.47042e-008 1.32732e-009
255
root  0.774375 41.4518 45.0397 -28.6911 47.0418 -34.2817
RightUpLeg  -42.2353 -18.9686 0.438217
RightLeg  80.506 -0.748813 -7.27689
RightFoot  5.56011 -1.49571 10.292
RightToes  -2.08645e-008 3.77894e-005 6.81332e-007
Spine  9.64768 0.182487 1.72467
Spine1  4.80406 -0.441928 3.35083
HEad  -32.1674 -24.1949 15.0353
LeftShoulder1  6.74506 -12.7259 -35.5278
LeftArm  4.32549 29.0393 -23.077
LeftForeArm  111.13 -80.5847 -95.6368
LeftHand  -0.428799 -2.97682 6.191
RightShoulder  3.86656 6.56138 32.5324
RightArm  -1.11584 -10.6391 22.5628
RightForeArm  30.4811 53.9673 12.9361
RightHand  -0.666128 6.94286 -6.6031
LeftUpLeg  -6.88779 7.62273 7.14706
LeftLeg  15.2784 4.09806 1.34298
LeftFoot  7.71635 -1.37728 8.0413
LeftToes  1.24767e-006 1.47042e-008 1.32732e-009
256
root  1.25771 42.3904 44.0184 -21.106 42.8599 -27.1274
RightUpLeg  -40.4454 -16.6432 0.408866
RightLeg  66.9409 -3.94065 -10.7775
RightFoot  3.8334 -0.941123 7.25307
RightToes  -2.08645e-008 3.77894e-005 6.81332e-007
Spine  9.03217 0.088833 5.10264
Spine1  2.6804 0.474656 -0.349661
HEad  -30.8219 -20.8639 13.1059
LeftShoulder1  6.62532 -12.6187 -35.0712
LeftArm  4.31519 34.3339 -25.1956
LeftForeArm  130.072 -79.2247 -118.121
LeftHand  -0.24265 -3.34274 3.47351
RightShoulder  4.0785 6.81047 33.6551
RightArm  4.556 -8.71965 25.5398
RightForeArm  29.9166 58.1238 15.4977
RightHand  -0.583648 6.77705 -5.90355
LeftUpLeg  -6.34913 9.71619 5.90504
LeftLeg  11.0139 -3.43734 -1.9112
LeftFoot  15.791 0.606241 -2.91631
LeftToes  1.24767e-006 1.47042e-008 1.32732e-009
257
root  1.54709 42.5654 42.9631 -16.009 38.7889 -22.1497
RightUpLeg  -39.0674 -15.4008 0.341904
RightLeg  54.0228 -4.36175 -6.94615
RightFoot  2.59501 -0.79003 6.60731
RightToes  -2.08645e-008 3.77894e-005 6.81332e-007
Spine  9.05376 0.338586 6.85012
Spine1  2.37331 1.01521 -1.32941
HEad  -31.7723 -17.5592 11.9932
LeftShoulder1  6.90383 -12.9767 -35.8521
LeftArm  3.32016 35.8176 -27.5953
LeftForeArm  140.435 -76.9719 -132.41
LeftHand  -0.197567 -3.278 2.88989
RightShoulder  4.26835 7.02287 34.6526
RightArm  9.24912 -6.08716 26.9531
RightForeArm  33.1932 63.5577 19.6598
RightHand  -0.393436 7.0899 -4.00716
LeftUpLeg  -8.35914 1.05965 5.05472
LeftLeg  14.7999 -3.02367 -0.440682
LeftFoot  16.58 0.965286 -4.27267
LeftToes  1.24767e-006 1.47042e-008 1.32732e-009
258
root  1.78954 42.0953 41.9081 -12.1816 34.8939 -18.4912
RightUpLeg  -37.405 -14.6218 0.422452
RightLeg  41.572 -1.04528 -1.33406
RightFoot  0.833003 -0.996944 9.42112
RightToes  -2.08645e-008 3.77894e-005 6.81332e-007
Spine  9.66578 0.789049 7.83718
Spine1  1.9947 1.70401 -1.87908
HEad  -33.1193 -15.0147 11.4443
LeftShoulder1  6.88407 -13.0466 -35.5593
LeftArm  3.35497 34.2089 -31.6019
LeftForeArm  145.727 -75.4279 -138.688
LeftHand  -0.269217 -3.17361 3.89256
RightShoulder  4.2661 7.04615 34.5412
RightArm  11.945 -5.24136 27.9036
RightForeArm  44.6031 71.2514 29.3311
RightHand  -0.220378 7.12545 -2.39654
LeftUpLeg  -11.6572 -12.1539 6.34572
LeftLeg  24.3364 2.30683 1.42468
LeftFoot  12.6902 -0.151657 0.415164
LeftToes  1.24767e-006 1.47042e-008 1.32732e-009
259
root  2.05936 41.0828 41.1242 -8.50211 29.2852 -14.0507
RightUpLeg  -35.7852 -13.3078 0.515265
RightLeg  32.3432 1.12045 0.518602
RightFoot  -1.88733 -1.07785 12.8735
RightToes  -2.08645e-008 3.77894e-005 6.81332e-007
Spine  10.4227 2.25617 6.49347
Spine1  0.970055 3.3253 -2.20356
HEad  -33.7497 -12.6767 11.1715
LeftShoulder1  6.59053 -12.7529 -34.5251
LeftArm  4.65934 31.0796 -34.9379
LeftForeArm  150.424 -74.1551 -142.895
LeftHand  -0.242209 -2.95794 3.59698
RightShoulder  4.27257 7.07593 34.4894
RightArm  13.6489 -5.57035 28.2178
RightForeArm  68.5703 78.3388 54.0896
RightHand  -0.0932428 7.05945 -1.22738
LeftUpLeg  -11.5125 -14.1272 6.98976
LeftLeg  29.3141 -2.59179 -1.25711
LeftFoot  2.41863 -0.0436122 0.0325245
LeftToes  1.24767e-006 1.47042e-008 1.32732e-009
260
root  2.30805 39.7696 40.4967 -4.60791 24.6014 -9.30644
RightUpLeg  -35.4776 -13.8436 -0.0171048
RightLeg  28.672 -0.550589 -0.557127
RightFoot  -4.14725 -0.862335 13.2117
RightToes  -2.08645e-008 3.77894e-005 6.81332e-007
Spine  9.03925 3.20962 2.99673
Spine1  1.32765 4.10993 -2.13042
HEad  -34.8431 -10.0817 10.9592
LeftShoulder1  6.84457 -12.8641 -35.7795
LeftArm  6.33232 25.6064 -33.2094
LeftForeArm  155.519 -72.696 -146.891
LeftHand  -0.306251 -2.69956 4.61708
RightShoulder  4.3964 7.17751 35.2538
RightArm  14.7097 -4.79574 29.0105
RightForeArm  103.777 80.5618 89.5296
RightHand  -0.211135 7.42795 -2.27223
LeftUpLeg  -11.5025 -8.61802 4.23212
LeftLeg  29.929 -8.20794 -4.73657
LeftFoot  -8.35271 0.0326211 0.672337
LeftToes  1.24767e-006 1.47042e-008 1.32732e-009
261
root  2.5077 38.682 39.7142 -1.95602 23.5716 -5.24475
RightUpLeg  -33.4498 -15.6981 -2.52243
RightLeg  28.2659 -5.81561 -3.61027
RightFoot  -5.82302 -0.545958 10.4454
RightToes  -2.08645e-008 3.77894e-005 6.81332e-007
Spine  7.01995 2.22244 -0.422318
Spine1  3.97439 2.82 -1.5457
HEad  -37.0833 -7.93208 11.4528
LeftShoulder1  7.44636 -13.3474 -38.0785
LeftArm  7.16815 17.0839 -28.7891
LeftForeArm  158.141 -72.9389 -146.816
LeftHand  -0.581598 -2.26747 9.03097
RightShoulder  4.4455 7.19618 35.6342
RightArm  13.8897 -4.63049 32.1299
RightForeArm  125.614 80.3738 106.858
RightHand  -0.327419 8.16484 -3.16825
LeftUpLeg  -13.9575 -4.6249 -1.34968
LeftLeg  31.2056 -6.63154 -3.94858
LeftFoot  -11.929 0.0953384 6.353
LeftToes  1.24767e-006 1.47042e-008 1.32732e-009
262
root  2.75463 38.2777 38.98 -1.21416 21.6665 -3.64003
RightUpLeg  -28.4126 -14.4884 -3.86559
RightLeg  27.8856 -12.0137 -7.02064
RightFoot  -7.29165 -0.30183 7.11758
RightToes  -2.08645e-008 3.77894e-005 6.81332e-007
Spine  4.82484 1.5751 -1.21664
Spine1  7.00633 1.84716 -0.498588
HEad  -37.5903 -6.39217 12.0059
LeftShoulder1  7.78851 -13.6659 -39.2044
LeftArm  7.41155 10.7422 -26.4153
LeftForeArm  154.134 -74.5158 -142.699
LeftHand  -0.692842 -1.60424 11.6699
RightShoulder  4.47504 7.18644 35.9424
RightArm  12.7898 -8.60999 33.6286
RightForeArm  139.731 79.591 118.919
RightHand  -0.478242 8.94726 -4.25664
LeftUpLeg  -15.645 -4.47447 -4.40228
LeftLeg  32.1618 -2.41223 -1.28065
LeftFoot  -11.879 0.106765 8.56015
LeftToes  1.24767e-006 1.47042e-008 1.32732e-009
263
root  3.04194 38.7889 38.4453 -0.738113 16.2571 -3.64359
RightUpLeg  -22.4974 -12.1469 -2.50047
RightLeg  25.7683 -14.3679 -7.63487
RightFoot  -7.49113 -0.261136 6.29902
RightToes  -2.08645e-008 3.77894e-005 6.81332e-007
Spine  2.23332 1.7688 -0.516561
Spine1  8.00459 1.68912 0.762176
HEad  -34.4945 -3.6242 11.0693
LeftShoulder1  7.47557 -13.3756 -38.1704
LeftArm  7.41188 12.3382 -27.7559
LeftForeArm  150.765 -73.92 -143.54
LeftHand  -0.609487 -1.44781 10.5034
RightShoulder  4.4558 7.15432 35.8896
RightArm  15.3734 -14.5802 32.1166
RightForeArm  143.938 78.3686 127.228
RightHand  -0.289939 9.2877 -2.67561
LeftUpLeg  -14.9014 -3.03246 -4.24463
LeftLeg  28.7359 -1.32266 -0.434458
LeftFoot  -8.76663 -0.0880787 6.07783
LeftToes  1.24767e-006 1.47042e-008 1.32732e-009
264
root  3.27836 39.9675 37.9486 0.976303 9.49931 -3.34299
RightUpLeg  -17.2542 -12.8411 -1.13259
RightLeg  22.504 -11.2338 -5.2766
RightFoot  -5.73232 -0.426488 7.89595
RightToes  -2.08645e-008 3.77894e-005 6.81332e-007
Spine  -0.688813 1.70785 -0.148251
Spine1  7.15868 1.32957 1.70185
HEad  -29.6946 0.497491 8.7114
LeftShoulder1  7.02951 -12.8854 -36.8265
LeftArm  7.37923 19.4598 -29.3927
LeftForeArm  154.688 -70.7914 -150.115
LeftHand  -0.54656 -1.82765 8.97498
RightShoulder  4.34045 7.07602 35.1224
RightArm  20.7628 -19.0632 29.6445
RightForeArm  141.723 78.0214 128.276
RightHand  -0.693071 8.46323 -6.17032
LeftUpLeg  -12.6375 1.47072 -3.90434
LeftLeg  18.8691 -1.72079 -0.376351
LeftFoot  -1.22749 -0.221682 2.58823
LeftToes  1.24767e-006 1.47042e-008 1.32732e-009
